<svg width="65" height="74" viewBox="0 0 65 74" fill="none" xmlns="http://www.w3.org/2000/svg">
<path d="M0.439941 28.9999C0.439941 20.3066 2.78661 13.3999 7.47994 8.2799C12.1733 3.10656 18.0933 0.519897 25.2399 0.519897C32.5999 0.519897 38.4666 2.4399 42.8399 6.2799C47.6399 10.5999 50.0399 18.1732 50.0399 28.9999C50.0399 36.7866 48.1199 43.1332 44.2799 48.0399C40.4933 52.9466 35.5333 55.8799 29.3999 56.8399C32.7599 57.5866 36.8133 59.8266 41.5599 63.5599C43.3733 64.9999 45.3466 66.4399 47.4799 67.8799C52.2799 71.0799 58.1199 72.6799 64.9999 72.6799V73.4799C55.2933 73.4799 47.7466 72.4132 42.3599 70.2799C37.8266 68.4132 34.5466 66.1732 32.5199 63.5599C31.6133 62.3866 30.7866 61.3199 30.0399 60.3599C29.3466 59.4532 28.6266 58.6799 27.8799 58.0399C27.1333 57.4532 26.2533 57.1599 25.2399 57.1599C21.5066 57.1599 18.2266 56.7332 15.3999 55.8799C12.5733 55.0266 9.98661 53.5866 7.63994 51.5599C2.83994 47.3466 0.439941 39.8266 0.439941 28.9999ZM7.07994 28.8399C7.07994 47.1866 13.1333 56.3599 25.2399 56.3599C30.4666 56.3599 34.7866 53.9066 38.1999 48.9999C41.6666 44.0932 43.3999 37.3732 43.3999 28.8399C43.3999 10.4932 37.3466 1.3199 25.2399 1.3199C20.0133 1.3199 15.6666 3.77323 12.1999 8.6799C8.78661 13.5866 7.07994 20.3066 7.07994 28.8399Z" fill="#906427"/>
<path d="M9.08689 50.8399H8.36689L26.3069 8.8399L26.9669 8.5399L42.0869 50.8399H36.9869L32.3069 37.6399H14.7869L9.08689 50.8399ZM24.4469 15.3199L15.0269 37.0399H32.1269L24.4469 15.3199Z" fill="#906427"/>
</svg>
